<svg width="884" height="157" viewBox="0 0 884 157" fill="none" xmlns="http://www.w3.org/2000/svg">
<path d="M32.3984 51.7539V74.0195H67.0664C68.6289 74.0195 69.8008 74.2799 70.582 74.8008C72.2747 75.9727 74.0326 77.3724 75.8555 79C77.6784 80.6276 79.599 82.5807 81.6172 84.8594C82.2682 85.7057 82.5938 86.3893 82.5938 86.9102C82.5938 87.4961 82.2682 88.1471 81.6172 88.8633C79.599 91.1419 77.6784 93.0951 75.8555 94.7227C74.0326 96.3503 72.2747 97.75 70.582 98.9219C69.6706 99.4427 68.4987 99.7031 67.0664 99.7031H32.3984V148.824C32.3984 150.777 31.9753 152.145 31.1289 152.926C30.3477 153.642 28.9805 154 27.0273 154H6.22656C4.27344 154 2.8737 153.642 2.02734 152.926C1.24609 152.145 0.855469 150.777 0.855469 148.824V40.1328C0.855469 33.6224 1.44141 28.4792 2.61328 24.7031C3.85026 20.862 6.19401 18.1276 9.64453 16.5C13.1602 14.8073 18.2708 13.9609 24.9766 13.9609H71.0703C72.6328 13.9609 73.8047 14.2214 74.5859 14.7422C76.2786 15.9141 78.0365 17.3138 79.8594 18.9414C81.6823 20.569 83.6029 22.5221 85.6211 24.8008C86.2721 25.6471 86.5977 26.3307 86.5977 26.8516C86.5977 27.4375 86.2721 28.0885 85.6211 28.8047C83.6029 31.0833 81.6823 33.0365 79.8594 34.6641C78.0365 36.2917 76.2786 37.6914 74.5859 38.8633C73.6745 39.3841 72.5026 39.6445 71.0703 39.6445H43.5312C39.2344 39.6445 36.3047 40.556 34.7422 42.3789C33.1797 44.2018 32.3984 47.3268 32.3984 51.7539ZM121.363 156.441C111.793 156.441 104.176 153.772 98.5117 148.434C92.9128 143.03 90.1133 135.608 90.1133 126.168C90.1133 121.285 90.9922 116.76 92.75 112.594C94.5729 108.362 97.6979 104.651 102.125 101.461C106.617 98.2057 112.867 95.6016 120.875 93.6484C128.948 91.6953 139.234 90.556 151.734 90.2305C151.734 84.306 150.237 80.0417 147.242 77.4375C144.312 74.8333 139.885 73.5312 133.961 73.5312C128.622 73.5312 124.26 74.4427 120.875 76.2656C117.49 78.0885 115.374 79.3255 114.527 79.9766C113.616 80.7578 112.509 81.0508 111.207 80.8555C109.449 80.5951 107.561 80.1393 105.543 79.4883C103.59 78.8372 101.474 78.0885 99.1953 77.2422C98.8698 77.112 98.5117 76.9167 98.1211 76.6562C97.7305 76.3307 97.5026 75.875 97.4375 75.2891C97.4375 74.9635 97.4701 74.5729 97.5352 74.1172C97.6003 73.5964 97.763 72.6849 98.0234 71.3828C98.2839 70.0807 98.6745 68.4857 99.1953 66.5977C99.7161 64.6445 100.204 63.1471 100.66 62.1055C101.246 60.9987 102.223 59.957 103.59 58.9805C104.697 58.069 108.049 56.6042 113.648 54.5859C119.247 52.5677 127.353 51.5586 137.965 51.5586C167.197 51.5586 181.812 65.7839 181.812 94.2344V149.508C181.812 150.745 181.454 151.819 180.738 152.73C180.087 153.577 178.948 154 177.32 154H162.672C161.63 154 160.686 153.87 159.84 153.609C159.059 153.284 158.31 152.698 157.594 151.852L151.539 144.039H150.855C147.861 148.401 143.824 151.559 138.746 153.512C133.733 155.465 127.939 156.441 121.363 156.441ZM132.105 133.785C138.095 133.785 142.62 132.255 145.68 129.195C148.74 126.135 150.693 122.978 151.539 119.723V108.883C142.49 108.883 135.686 109.599 131.129 111.031C126.637 112.398 123.642 114.221 122.145 116.5C120.647 118.714 119.898 121.122 119.898 123.727C119.898 127.503 121.07 130.139 123.414 131.637C125.758 133.069 128.655 133.785 132.105 133.785ZM257.984 51.5586C265.732 51.5586 271.363 52.2096 274.879 53.5117C278.395 54.7487 280.608 55.7253 281.52 56.4414C282.952 57.3529 284.059 58.5247 284.84 59.957C285.296 60.6732 285.816 61.9102 286.402 63.668C286.988 65.4258 287.411 67.3464 287.672 69.4297C287.997 71.0573 288.03 72.2292 287.77 72.9453C287.509 73.5964 286.695 74.4102 285.328 75.3867C283.766 76.4284 282.04 77.3724 280.152 78.2188C278.329 79 276.832 79.5534 275.66 79.8789C274.684 80.1393 273.935 80.2044 273.414 80.0742C272.893 79.944 272.177 79.5534 271.266 78.9023C270.224 78.1862 268.759 77.4049 266.871 76.5586C264.983 75.6471 262.379 75.1914 259.059 75.1914C254.827 75.1914 250.79 76.2331 246.949 78.3164C243.173 80.3997 240.081 83.5247 237.672 87.6914C235.328 91.8581 234.156 97.0664 234.156 103.316C234.156 112.691 236.598 119.951 241.48 125.094C246.428 130.237 253.036 132.809 261.305 132.809C265.536 132.809 269.052 132.385 271.852 131.539C274.651 130.628 276.865 129.716 278.492 128.805C279.794 128.089 280.771 127.926 281.422 128.316C282.138 128.642 282.691 129.26 283.082 130.172L290.211 146.285C290.927 147.978 290.536 149.182 289.039 149.898C286.63 151.135 282.659 152.535 277.125 154.098C271.591 155.66 264.755 156.441 256.617 156.441C240.276 156.441 227.223 152.112 217.457 143.453C207.691 134.729 202.809 121.708 202.809 104.391C202.809 93.3229 205.055 83.8503 209.547 75.9727C214.039 68.0951 220.419 62.0729 228.688 57.9062C236.956 53.6745 246.721 51.5586 257.984 51.5586ZM355.25 156.441C344.247 156.441 334.677 154.684 326.539 151.168C318.401 147.587 312.086 142.053 307.594 134.566C303.102 127.079 300.855 117.411 300.855 105.562C300.855 87.7891 305.413 74.3451 314.527 65.2305C323.642 56.1159 335.751 51.5586 350.855 51.5586C360.686 51.5586 368.987 53.3164 375.758 56.832C382.594 60.3477 387.77 65.1979 391.285 71.3828C394.866 77.5677 396.656 84.6315 396.656 92.5742C396.656 100.322 394.671 105.725 390.699 108.785C386.728 111.845 380.934 113.375 373.316 113.375H331.422C331.943 120.081 334.384 125.191 338.746 128.707C343.173 132.223 349.163 133.98 356.715 133.98C362.704 133.98 367.49 133.102 371.07 131.344C374.716 129.521 377.255 128.089 378.688 127.047C379.924 126.135 381.324 125.712 382.887 125.777C384.124 125.777 385.882 126.038 388.16 126.559C390.504 127.014 392.815 127.893 395.094 129.195C396.721 130.042 397.535 131.214 397.535 132.711C397.535 133.557 397.372 134.762 397.047 136.324C396.852 137.236 396.526 138.57 396.07 140.328C395.615 142.021 395.029 143.616 394.312 145.113C393.922 145.829 393.303 146.513 392.457 147.164C391.155 148.076 389.039 149.28 386.109 150.777C383.245 152.275 379.306 153.577 374.293 154.684C369.28 155.855 362.932 156.441 355.25 156.441ZM331.227 93.3555H363.062C366.383 93.3555 368.043 91.8255 368.043 88.7656C368.043 84.1432 366.578 80.2695 363.648 77.1445C360.784 73.9544 356.454 72.3594 350.66 72.3594C344.345 72.3594 339.69 74.3776 336.695 78.4141C333.766 82.4505 331.943 87.431 331.227 93.3555ZM464.039 156.441C455.641 156.441 448.577 155.823 442.848 154.586C437.118 153.349 432.301 151.819 428.395 149.996C424.488 148.173 421.07 146.35 418.141 144.527V16.6953C418.141 15.1328 418.466 13.9284 419.117 13.082C421.852 9.5013 425.855 5.6276 431.129 1.46094C432.04 0.809896 432.854 0.484375 433.57 0.484375C434.417 0.484375 435.23 0.809896 436.012 1.46094C438.811 3.60938 441.155 5.6276 443.043 7.51562C444.996 9.40365 446.656 11.2591 448.023 13.082C448.674 13.9284 449 15.1328 449 16.6953V64.0586H449.391C451.995 60.7383 455.608 57.8411 460.23 55.3672C464.853 52.8281 471.298 51.5586 479.566 51.5586C488.811 51.5586 496.428 53.707 502.418 58.0039C508.408 62.2357 512.867 68.0951 515.797 75.582C518.727 83.0039 520.191 91.5326 520.191 101.168C520.191 111.585 518.466 120.992 515.016 129.391C511.565 137.724 505.738 144.332 497.535 149.215C489.397 154.033 478.232 156.441 464.039 156.441ZM465.309 132.809C472.861 132.809 478.622 130.302 482.594 125.289C486.565 120.211 488.551 112.984 488.551 103.609C488.551 94.1042 486.76 87.2031 483.18 82.9062C479.664 78.6094 474.553 76.4609 467.848 76.4609C462.444 76.4609 458.31 77.5677 455.445 79.7812C452.646 81.9948 450.497 84.7943 449 88.1797V128.512C450.432 129.553 452.451 130.53 455.055 131.441C457.724 132.353 461.142 132.809 465.309 132.809ZM589.137 156.441C572.73 156.441 559.742 152.079 550.172 143.355C540.602 134.632 535.816 121.643 535.816 104.391C535.816 86.6823 540.764 73.4661 550.66 64.7422C560.621 55.9531 573.902 51.5586 590.504 51.5586C606.52 51.5586 619.345 55.888 628.98 64.5469C638.616 73.1406 643.434 85.8359 643.434 102.633C643.434 120.146 638.616 133.492 628.98 142.672C619.345 151.852 606.064 156.441 589.137 156.441ZM590.113 132.809C597.275 132.809 602.678 130.595 606.324 126.168C609.97 121.676 611.793 114.026 611.793 103.219C611.793 92.9323 609.938 85.7057 606.227 81.5391C602.581 77.3073 597.145 75.1914 589.918 75.1914C582.952 75.1914 577.451 77.4701 573.414 82.0273C569.443 86.5195 567.457 93.8438 567.457 104C567.457 114.612 569.345 122.066 573.121 126.363C576.962 130.66 582.626 132.809 590.113 132.809ZM712.379 156.441C695.973 156.441 682.984 152.079 673.414 143.355C663.844 134.632 659.059 121.643 659.059 104.391C659.059 86.6823 664.007 73.4661 673.902 64.7422C683.863 55.9531 697.145 51.5586 713.746 51.5586C729.762 51.5586 742.587 55.888 752.223 64.5469C761.858 73.1406 766.676 85.8359 766.676 102.633C766.676 120.146 761.858 133.492 752.223 142.672C742.587 151.852 729.306 156.441 712.379 156.441ZM713.355 132.809C720.517 132.809 725.921 130.595 729.566 126.168C733.212 121.676 735.035 114.026 735.035 103.219C735.035 92.9323 733.18 85.7057 729.469 81.5391C725.823 77.3073 720.387 75.1914 713.16 75.1914C706.194 75.1914 700.693 77.4701 696.656 82.0273C692.685 86.5195 690.699 93.8438 690.699 104C690.699 114.612 692.587 122.066 696.363 126.363C700.204 130.66 705.868 132.809 713.355 132.809ZM818.531 148.824C818.531 150.777 818.108 152.145 817.262 152.926C816.48 153.642 815.113 154 813.16 154H793.043C791.09 154 789.69 153.642 788.844 152.926C788.062 152.145 787.672 150.777 787.672 148.824V16.6953C787.672 15.1328 787.997 13.9284 788.648 13.082C791.383 9.5013 795.387 5.6276 800.66 1.46094C801.572 0.809896 802.385 0.484375 803.102 0.484375C803.948 0.484375 804.762 0.809896 805.543 1.46094C808.342 3.60938 810.686 5.6276 812.574 7.51562C814.527 9.40365 816.188 11.2591 817.555 13.082C818.206 13.9284 818.531 15.1328 818.531 16.6953V93.3555H819.703C829.599 93.3555 836.305 91.5977 839.82 88.082C843.401 84.5013 845.191 79.5534 845.191 73.2383V67.9648C845.191 66.4023 845.517 65.1979 846.168 64.3516C848.902 60.7708 852.906 56.8971 858.18 52.7305C859.091 52.0794 859.905 51.7539 860.621 51.7539C861.467 51.7539 862.281 52.0794 863.062 52.7305C865.862 54.8789 868.206 56.8971 870.094 58.7852C872.047 60.6732 873.707 62.5286 875.074 64.3516C875.725 65.1979 876.051 66.4023 876.051 67.9648V73.2383C876.051 76.9492 875.302 81.0508 873.805 85.543C872.372 90.0352 869.736 94.0065 865.895 97.457C862.053 100.908 856.585 102.926 849.488 103.512V104C854.957 106.409 859.677 109.599 863.648 113.57C867.62 117.542 870.94 121.806 873.609 126.363C876.279 130.855 878.329 135.185 879.762 139.352C881.259 143.453 882.236 146.936 882.691 149.801C883.147 152.6 882.203 154 879.859 154H854.176C851.962 154 850.693 152.665 850.367 149.996C849.911 146.936 848.902 143.355 847.34 139.254C845.842 135.087 843.792 131.018 841.188 127.047C838.648 123.076 835.556 119.788 831.91 117.184C828.329 114.514 824.26 113.18 819.703 113.18H818.531V148.824Z" fill="white"/>
</svg>
