<svg width="821" height="191" viewBox="0 0 821 191" fill="none" xmlns="http://www.w3.org/2000/svg">
<path d="M31.8516 138.824C31.8516 140.777 31.4284 142.145 30.582 142.926C29.8008 143.642 28.4336 144 26.4805 144H5.67969C3.72656 144 2.32682 143.642 1.48047 142.926C0.699219 142.145 0.308594 140.777 0.308594 138.824V19.5859C0.308594 17.6979 0.634115 16.2656 1.28516 15.2891C4.21484 10.9922 8.31641 6.46745 13.5898 1.71484C14.5664 0.933594 15.4128 0.542969 16.1289 0.542969C16.9102 0.542969 17.724 0.933594 18.5703 1.71484C21.4349 4.1888 23.8438 6.5651 25.7969 8.84375C27.75 11.0573 29.4427 13.2057 30.875 15.2891C31.526 16.3307 31.8516 17.763 31.8516 19.5859V138.824ZM154.508 81.793V138.824C154.508 140.777 154.085 142.145 153.238 142.926C152.457 143.642 151.09 144 149.137 144H129.02C127.066 144 125.667 143.642 124.82 142.926C124.039 142.145 123.648 140.777 123.648 138.824V86.8711C123.648 79.7747 122.151 74.599 119.156 71.3438C116.161 68.0885 112.092 66.4609 106.949 66.4609C101.806 66.4609 97.8346 67.5677 95.0352 69.7812C92.3008 71.9948 90.1849 74.7943 88.6875 78.1797V138.824C88.6875 140.777 88.2643 142.145 87.418 142.926C86.6367 143.642 85.2695 144 83.3164 144H63.1992C61.2461 144 59.8464 143.642 59 142.926C58.2188 142.145 57.8281 140.777 57.8281 138.824V56.9883C57.8281 55.4258 58.1536 54.2214 58.8047 53.375C60.1719 51.5521 61.7995 49.6966 63.6875 47.8086C65.6406 45.9206 68.0169 43.9023 70.8164 41.7539C71.6628 41.1029 72.4766 40.7773 73.2578 40.7773C73.974 40.7773 74.7878 41.1029 75.6992 41.7539C78.4336 43.9023 80.7773 45.9531 82.7305 47.9062C84.6836 49.8594 86.4089 51.8776 87.9062 53.9609H88.3945C89.5013 52.5286 91.1615 50.8685 93.375 48.9805C95.5885 47.0273 98.681 45.3021 102.652 43.8047C106.689 42.3073 111.832 41.5586 118.082 41.5586C124.202 41.5586 130.029 42.7956 135.562 45.2695C141.096 47.7435 145.621 51.9102 149.137 57.7695C152.717 63.6289 154.508 71.6367 154.508 81.793ZM208.707 146.441C201.741 146.441 195.947 145.855 191.324 144.684C186.767 143.512 183.089 142.112 180.289 140.484C177.555 138.792 175.406 137.262 173.844 135.895C172.672 134.788 172.542 133.551 173.453 132.184L183.414 117.438C184.846 115.354 186.474 115.224 188.297 117.047C190.185 118.87 192.724 120.66 195.914 122.418C199.169 124.111 203.206 124.957 208.023 124.957C212.32 124.957 215.836 124.241 218.57 122.809C221.37 121.311 222.77 119.163 222.77 116.363C222.77 114.41 222.151 112.815 220.914 111.578C219.677 110.341 217.496 109.072 214.371 107.77C211.246 106.467 206.884 104.807 201.285 102.789C193.017 99.7943 186.767 96.181 182.535 91.9492C178.303 87.7174 176.188 81.5326 176.188 73.3945C176.188 65.9076 178.238 59.8203 182.34 55.1328C186.507 50.4453 191.812 47.0273 198.258 44.8789C204.768 42.6654 211.539 41.5586 218.57 41.5586C227.49 41.5586 233.74 42.4049 237.32 44.0977C240.966 45.7253 243.31 46.9948 244.352 47.9062C245.328 48.7526 246.012 49.7292 246.402 50.8359C247.249 53.375 247.9 56.7279 248.355 60.8945C248.616 63.3034 247.997 64.8984 246.5 65.6797C245.719 66.1354 244.482 66.6237 242.789 67.1445C241.096 67.6654 239.404 68.1211 237.711 68.5117C236.018 68.9023 234.749 69.0977 233.902 69.0977C233.642 69.0977 233.349 69.0326 233.023 68.9023C232.763 68.707 232.275 68.2839 231.559 67.6328C230.712 66.7865 229.247 65.8099 227.164 64.7031C225.146 63.5964 222.346 63.043 218.766 63.043C215.25 63.043 212.288 63.6289 209.879 64.8008C207.535 65.9076 206.363 67.8932 206.363 70.7578C206.363 73.8828 207.861 76.2266 210.855 77.7891C213.915 79.3516 218.928 81.3698 225.895 83.8438C231.363 85.7318 236.116 87.8151 240.152 90.0938C244.254 92.3073 247.411 95.237 249.625 98.8828C251.839 102.464 252.945 107.314 252.945 113.434C252.945 121.376 250.764 127.789 246.402 132.672C242.105 137.49 236.572 141.005 229.801 143.219C223.095 145.367 216.064 146.441 208.707 146.441ZM307.73 146.441C285.986 146.441 275.113 135.146 275.113 112.555V66.7539H264.078C262.125 66.7539 260.758 66.3633 259.977 65.582C259.26 64.7357 258.902 63.3359 258.902 61.3828V49.3711C258.902 47.418 259.26 46.0508 259.977 45.2695C260.758 44.4232 262.125 44 264.078 44H275.113V28.2773C275.113 26.7148 275.439 25.5104 276.09 24.6641C278.824 21.0833 282.828 17.2096 288.102 13.043C289.013 12.3919 289.827 12.0664 290.543 12.0664C291.324 12.0664 292.105 12.3919 292.887 13.043C295.686 15.1914 298.03 17.2096 299.918 19.0977C301.871 20.9857 303.531 22.8411 304.898 24.6641C305.549 25.5104 305.875 26.7148 305.875 28.2773V44H323.16C325.113 44 326.448 44.4232 327.164 45.2695C327.945 46.0508 328.336 47.418 328.336 49.3711V61.3828C328.336 63.3359 327.945 64.7357 327.164 65.582C326.448 66.3633 325.113 66.7539 323.16 66.7539H305.875V107.184C305.875 117.6 309.651 122.809 317.203 122.809C318.375 122.809 319.449 122.711 320.426 122.516C321.402 122.255 322.249 121.995 322.965 121.734C324.332 121.214 325.276 121.018 325.797 121.148C326.383 121.279 326.904 121.995 327.359 123.297L333.023 138.434C333.609 140.061 333.219 141.233 331.852 141.949C330.875 142.405 328.499 143.251 324.723 144.488C321.012 145.79 315.348 146.441 307.73 146.441ZM444.156 53.375V132.574C444.156 151.585 438.72 166.07 427.848 176.031C417.04 185.992 402.197 190.973 383.316 190.973C375.504 190.973 369.319 190.387 364.762 189.215C360.204 188.108 356.754 187.034 354.41 185.992C352.913 185.276 351.936 184.527 351.48 183.746C350.829 182.704 350.081 181.174 349.234 179.156C348.453 177.138 347.704 174.924 346.988 172.516C346.793 171.604 346.76 170.921 346.891 170.465C347.151 169.814 347.639 169.13 348.355 168.414C349.527 167.242 351.188 165.875 353.336 164.312C355.549 162.75 357.242 161.741 358.414 161.285C359.651 160.829 360.79 160.895 361.832 161.48C363.525 162.392 365.934 163.401 369.059 164.508C372.249 165.68 376.708 166.266 382.438 166.266C391.552 166.266 398.974 163.922 404.703 159.234C410.432 154.547 413.297 147.32 413.297 137.555V134.039H412.906C411.474 135.862 409.618 137.717 407.34 139.605C405.061 141.493 402.099 143.089 398.453 144.391C394.872 145.693 390.25 146.344 384.586 146.344C374.755 146.344 366.682 144.228 360.367 139.996C354.117 135.699 349.495 129.807 346.5 122.32C343.57 114.833 342.105 106.305 342.105 96.7344C342.105 86.2526 343.831 76.8451 347.281 68.5117C350.732 60.1784 356.526 53.6029 364.664 48.7852C372.802 43.9023 383.935 41.4609 398.062 41.4609C406.526 41.4609 413.622 42.0794 419.352 43.3164C425.146 44.5534 429.996 46.0833 433.902 47.9062C437.809 49.7292 441.227 51.5521 444.156 53.375ZM396.988 65.0938C389.436 65.0938 383.674 67.6328 379.703 72.7109C375.732 77.7891 373.746 85.6667 373.746 96.3438C373.746 113.076 380.647 121.441 394.449 121.441C399.853 121.441 403.987 120.335 406.852 118.121C409.716 115.908 411.865 113.108 413.297 109.723V69.3906C411.865 68.349 409.846 67.3724 407.242 66.4609C404.638 65.5495 401.22 65.0938 396.988 65.0938ZM501.383 62.5547H501.773C506.656 49.013 515.445 42.2422 528.141 42.2422C529.768 42.2422 531.103 42.3398 532.145 42.5352C533.186 42.6654 533.902 42.7956 534.293 42.9258C535.27 43.2513 535.758 44 535.758 45.1719V68.707C535.758 70.7253 534.586 71.2786 532.242 70.3672C531.461 70.0417 530.322 69.7161 528.824 69.3906C527.392 69 525.374 68.8047 522.77 68.8047C516.064 68.8047 510.823 71.2786 507.047 76.2266C503.271 81.1094 501.383 87.7826 501.383 96.2461V138.824C501.383 140.777 500.96 142.145 500.113 142.926C499.332 143.642 497.965 144 496.012 144H475.895C473.941 144 472.542 143.642 471.695 142.926C470.914 142.145 470.523 140.777 470.523 138.824V56.9883C470.523 55.4258 470.849 54.2214 471.5 53.375C472.867 51.5521 474.495 49.6966 476.383 47.8086C478.336 45.9206 480.712 43.9023 483.512 41.7539C484.033 41.3633 484.553 41.1029 485.074 40.9727C485.595 40.8424 486.051 40.7773 486.441 40.7773C487.353 40.7773 488.264 41.1029 489.176 41.7539C494.579 45.9857 498.355 49.599 500.504 52.5938C501.09 53.375 501.383 54.2865 501.383 55.3281V62.5547ZM575.309 146.441C565.738 146.441 558.121 143.772 552.457 138.434C546.858 133.03 544.059 125.608 544.059 116.168C544.059 111.285 544.938 106.76 546.695 102.594C548.518 98.362 551.643 94.651 556.07 91.4609C560.562 88.2057 566.812 85.6016 574.82 83.6484C582.893 81.6953 593.18 80.556 605.68 80.2305C605.68 74.306 604.182 70.0417 601.188 67.4375C598.258 64.8333 593.831 63.5312 587.906 63.5312C582.568 63.5312 578.206 64.4427 574.82 66.2656C571.435 68.0885 569.319 69.3255 568.473 69.9766C567.561 70.7578 566.454 71.0508 565.152 70.8555C563.395 70.5951 561.507 70.1393 559.488 69.4883C557.535 68.8372 555.419 68.0885 553.141 67.2422C552.815 67.112 552.457 66.9167 552.066 66.6562C551.676 66.3307 551.448 65.875 551.383 65.2891C551.383 64.9635 551.415 64.5729 551.48 64.1172C551.546 63.5964 551.708 62.6849 551.969 61.3828C552.229 60.0807 552.62 58.4857 553.141 56.5977C553.661 54.6445 554.15 53.1471 554.605 52.1055C555.191 50.9987 556.168 49.957 557.535 48.9805C558.642 48.069 561.995 46.6042 567.594 44.5859C573.193 42.5677 581.298 41.5586 591.91 41.5586C621.142 41.5586 635.758 55.7839 635.758 84.2344V139.508C635.758 140.745 635.4 141.819 634.684 142.73C634.033 143.577 632.893 144 631.266 144H616.617C615.576 144 614.632 143.87 613.785 143.609C613.004 143.284 612.255 142.698 611.539 141.852L605.484 134.039H604.801C601.806 138.401 597.77 141.559 592.691 143.512C587.678 145.465 581.884 146.441 575.309 146.441ZM586.051 123.785C592.04 123.785 596.565 122.255 599.625 119.195C602.685 116.135 604.638 112.978 605.484 109.723V98.8828C596.435 98.8828 589.632 99.599 585.074 101.031C580.582 102.398 577.587 104.221 576.09 106.5C574.592 108.714 573.844 111.122 573.844 113.727C573.844 117.503 575.016 120.139 577.359 121.637C579.703 123.069 582.6 123.785 586.051 123.785ZM750.602 54.2539C753.01 51.3242 756.721 48.4922 761.734 45.7578C766.812 42.9583 773.941 41.5586 783.121 41.5586C796.142 41.5586 805.549 44.9115 811.344 51.6172C817.138 58.3229 820.035 68.3815 820.035 81.793V138.824C820.035 140.777 819.612 142.145 818.766 142.926C817.984 143.642 816.617 144 814.664 144H794.547C792.594 144 791.194 143.642 790.348 142.926C789.566 142.145 789.176 140.777 789.176 138.824V86.8711C789.176 79.5794 787.841 74.3711 785.172 71.2461C782.503 68.056 778.499 66.4609 773.16 66.4609C768.408 66.4609 764.632 67.5352 761.832 69.6836C759.098 71.7669 757.145 74.599 755.973 78.1797V138.824C755.973 140.777 755.549 142.145 754.703 142.926C753.922 143.642 752.555 144 750.602 144H730.484C728.531 144 727.132 143.642 726.285 142.926C725.504 142.145 725.113 140.777 725.113 138.824V86.8711C725.113 79.7747 723.648 74.599 720.719 71.3438C717.789 68.0885 713.948 66.4609 709.195 66.4609C704.703 66.4609 701.09 67.5677 698.355 69.7812C695.621 71.9948 693.505 74.7943 692.008 78.1797V138.824C692.008 140.777 691.585 142.145 690.738 142.926C689.957 143.642 688.59 144 686.637 144H666.52C664.566 144 663.167 143.642 662.32 142.926C661.539 142.145 661.148 140.777 661.148 138.824V56.9883C661.148 55.4258 661.474 54.2214 662.125 53.375C663.492 51.5521 665.12 49.6966 667.008 47.8086C668.961 45.9206 671.337 43.9023 674.137 41.7539C674.983 41.1029 675.797 40.7773 676.578 40.7773C677.294 40.7773 678.108 41.1029 679.02 41.7539C681.754 43.9023 684.098 45.9531 686.051 47.9062C688.004 49.8594 689.729 51.8776 691.227 53.9609H691.715C693.928 51.1615 697.379 48.3945 702.066 45.6602C706.754 42.9258 713.46 41.5586 722.184 41.5586C730.517 41.5586 736.702 42.8281 740.738 45.3672C744.775 47.8411 748.062 50.8034 750.602 54.2539Z" fill="white"/>
</svg>
