<svg width="841" height="157" viewBox="0 0 841 157" fill="none" xmlns="http://www.w3.org/2000/svg">
<path d="M24.7734 154C18.0677 154 12.957 153.154 9.44141 151.461C5.99089 149.768 3.64714 147.001 2.41016 143.16C1.23828 139.319 0.652344 134.208 0.652344 127.828V29.5859C0.652344 27.6979 0.977865 26.2656 1.62891 25.2891C4.55859 20.9922 8.66016 16.4674 13.9336 11.7148C14.9102 10.9336 15.7565 10.543 16.4727 10.543C17.2539 10.543 18.0677 10.9336 18.9141 11.7148C21.7786 14.1888 24.1875 16.5651 26.1406 18.8438C28.0938 21.0573 29.7865 23.2057 31.2188 25.2891C31.8698 26.3307 32.1953 27.763 32.1953 29.5859V116.207C32.1953 120.569 32.9766 123.694 34.5391 125.582C36.1016 127.47 39.0312 128.414 43.3281 128.414L73.3086 128.316C74.8711 128.316 76.043 128.577 76.8242 129.098C78.5169 130.27 80.2747 131.669 82.0977 133.297C83.9206 134.924 85.8411 136.878 87.8594 139.156C88.5104 140.003 88.8359 140.686 88.8359 141.207C88.8359 141.793 88.5104 142.444 87.8594 143.16C85.8411 145.439 83.9206 147.392 82.0977 149.02C80.2747 150.647 78.5169 152.047 76.8242 153.219C75.9128 153.74 74.7409 154 73.3086 154H24.7734ZM96.6484 21.1875C96.6484 20.3411 96.9089 19.5924 97.4297 18.9414C97.9505 18.2904 98.6341 17.444 99.4805 16.4023C101.303 14.319 103.419 12.138 105.828 9.85938C108.237 7.51562 110.678 5.26953 113.152 3.12109C114.715 1.88411 115.887 1.26562 116.668 1.26562C117.449 1.26562 118.654 1.88411 120.281 3.12109C125.555 7.67839 130.047 12.1055 133.758 16.4023C134.604 17.3789 135.288 18.2253 135.809 18.9414C136.395 19.5924 136.688 20.3411 136.688 21.1875C136.688 22.0339 136.395 22.7826 135.809 23.4336C135.288 24.0846 134.572 24.9635 133.66 26.0703C131.902 28.0885 129.852 30.2695 127.508 32.6133C125.164 34.8919 122.755 37.0729 120.281 39.1562C119.37 39.9375 118.654 40.4583 118.133 40.7188C117.612 40.9141 117.124 41.0117 116.668 41.0117C116.212 41.0117 115.724 40.9141 115.203 40.7188C114.747 40.4583 113.999 39.9375 112.957 39.1562C110.353 37.0729 107.911 34.8919 105.633 32.6133C103.354 30.2695 101.303 28.0234 99.4805 25.875C98.6341 24.8333 97.9505 24.0195 97.4297 23.4336C96.9089 22.7826 96.6484 22.0339 96.6484 21.1875ZM132 148.824C132 150.777 131.577 152.145 130.73 152.926C129.949 153.642 128.582 154 126.629 154H106.512C104.559 154 103.159 153.642 102.312 152.926C101.531 152.145 101.141 150.777 101.141 148.824V59.1758C101.141 57.2227 101.531 55.888 102.312 55.1719C103.159 54.3906 104.559 54 106.512 54H126.629C128.582 54 129.949 54.3906 130.73 55.1719C131.577 55.888 132 57.2227 132 59.1758V148.824ZM255.242 91.793V148.824C255.242 150.777 254.819 152.145 253.973 152.926C253.191 153.642 251.824 154 249.871 154H229.754C227.801 154 226.401 153.642 225.555 152.926C224.773 152.145 224.383 150.777 224.383 148.824V96.8711C224.383 89.7747 222.885 84.599 219.891 81.3438C216.896 78.0885 212.827 76.4609 207.684 76.4609C202.54 76.4609 198.569 77.5677 195.77 79.7812C193.035 81.9948 190.919 84.7943 189.422 88.1797V148.824C189.422 150.777 188.999 152.145 188.152 152.926C187.371 153.642 186.004 154 184.051 154H163.934C161.98 154 160.581 153.642 159.734 152.926C158.953 152.145 158.562 150.777 158.562 148.824V66.9883C158.562 65.4258 158.888 64.2214 159.539 63.375C160.906 61.5521 162.534 59.6966 164.422 57.8086C166.375 55.9206 168.751 53.9023 171.551 51.7539C172.397 51.1029 173.211 50.7773 173.992 50.7773C174.708 50.7773 175.522 51.1029 176.434 51.7539C179.168 53.9023 181.512 55.9531 183.465 57.9062C185.418 59.8594 187.143 61.8776 188.641 63.9609H189.129C190.236 62.5286 191.896 60.8685 194.109 58.9805C196.323 57.0273 199.415 55.3021 203.387 53.8047C207.423 52.3073 212.566 51.5586 218.816 51.5586C224.936 51.5586 230.763 52.7956 236.297 55.2695C241.831 57.7435 246.355 61.9102 249.871 67.7695C253.452 73.6289 255.242 81.6367 255.242 91.793ZM312.469 148.824C312.469 150.777 312.046 152.145 311.199 152.926C310.418 153.642 309.051 154 307.098 154H286.98C285.027 154 283.628 153.642 282.781 152.926C282 152.145 281.609 150.777 281.609 148.824V16.6953C281.609 15.1328 281.935 13.9284 282.586 13.082C285.32 9.5013 289.324 5.6276 294.598 1.46094C295.509 0.809896 296.323 0.484375 297.039 0.484375C297.885 0.484375 298.699 0.809896 299.48 1.46094C302.28 3.60938 304.624 5.6276 306.512 7.51562C308.465 9.40365 310.125 11.2591 311.492 13.082C312.143 13.9284 312.469 15.1328 312.469 16.6953V93.3555H313.641C323.536 93.3555 330.242 91.5977 333.758 88.082C337.339 84.5013 339.129 79.5534 339.129 73.2383V67.9648C339.129 66.4023 339.454 65.1979 340.105 64.3516C342.84 60.7708 346.844 56.8971 352.117 52.7305C353.029 52.0794 353.842 51.7539 354.559 51.7539C355.405 51.7539 356.219 52.0794 357 52.7305C359.799 54.8789 362.143 56.8971 364.031 58.7852C365.984 60.6732 367.645 62.5286 369.012 64.3516C369.663 65.1979 369.988 66.4023 369.988 67.9648V73.2383C369.988 76.9492 369.24 81.0508 367.742 85.543C366.31 90.0352 363.673 94.0065 359.832 97.457C355.991 100.908 350.522 102.926 343.426 103.512V104C348.895 106.409 353.615 109.599 357.586 113.57C361.557 117.542 364.878 121.806 367.547 126.363C370.216 130.855 372.267 135.185 373.699 139.352C375.197 143.453 376.173 146.936 376.629 149.801C377.085 152.6 376.141 154 373.797 154H348.113C345.9 154 344.63 152.665 344.305 149.996C343.849 146.936 342.84 143.355 341.277 139.254C339.78 135.087 337.729 131.018 335.125 127.047C332.586 123.076 329.493 119.788 325.848 117.184C322.267 114.514 318.198 113.18 313.641 113.18H312.469V148.824ZM442.938 156.441C431.935 156.441 422.365 154.684 414.227 151.168C406.089 147.587 399.773 142.053 395.281 134.566C390.789 127.079 388.543 117.411 388.543 105.562C388.543 87.7891 393.1 74.3451 402.215 65.2305C411.329 56.1159 423.439 51.5586 438.543 51.5586C448.374 51.5586 456.674 53.3164 463.445 56.832C470.281 60.3477 475.457 65.1979 478.973 71.3828C482.553 77.5677 484.344 84.6315 484.344 92.5742C484.344 100.322 482.358 105.725 478.387 108.785C474.415 111.845 468.621 113.375 461.004 113.375H419.109C419.63 120.081 422.072 125.191 426.434 128.707C430.861 132.223 436.85 133.98 444.402 133.98C450.392 133.98 455.177 133.102 458.758 131.344C462.404 129.521 464.943 128.089 466.375 127.047C467.612 126.135 469.012 125.712 470.574 125.777C471.811 125.777 473.569 126.038 475.848 126.559C478.191 127.014 480.503 127.893 482.781 129.195C484.409 130.042 485.223 131.214 485.223 132.711C485.223 133.557 485.06 134.762 484.734 136.324C484.539 137.236 484.214 138.57 483.758 140.328C483.302 142.021 482.716 143.616 482 145.113C481.609 145.829 480.991 146.513 480.145 147.164C478.842 148.076 476.727 149.28 473.797 150.777C470.932 152.275 466.993 153.577 461.98 154.684C456.967 155.855 450.62 156.441 442.938 156.441ZM418.914 93.3555H450.75C454.07 93.3555 455.73 91.8255 455.73 88.7656C455.73 84.1432 454.266 80.2695 451.336 77.1445C448.471 73.9544 444.142 72.3594 438.348 72.3594C432.033 72.3594 427.378 74.3776 424.383 78.4141C421.453 82.4505 419.63 87.431 418.914 93.3555ZM541.18 156.441C532.521 156.441 525.132 154.326 519.012 150.094C512.957 145.797 508.335 139.905 505.145 132.418C502.02 124.866 500.457 116.174 500.457 106.344C500.457 93.388 502.736 82.9062 507.293 74.8984C511.915 66.8255 518.393 60.901 526.727 57.125C535.125 53.349 545.021 51.4609 556.414 51.4609C560.32 51.4609 563.543 51.6562 566.082 52.0469C568.686 52.4375 570.542 52.7956 571.648 53.1211V16.6953C571.648 15.1328 571.974 13.9284 572.625 13.082C575.359 9.5013 579.363 5.6276 584.637 1.46094C585.548 0.809896 586.362 0.484375 587.078 0.484375C587.924 0.484375 588.738 0.809896 589.52 1.46094C592.319 3.60938 594.663 5.6276 596.551 7.51562C598.504 9.40365 600.164 11.2591 601.531 13.082C602.182 13.9284 602.508 15.1328 602.508 16.6953V149.508C602.508 150.745 602.085 151.819 601.238 152.73C600.392 153.577 599.318 154 598.016 154H583.465C582.423 154 581.479 153.87 580.633 153.609C579.852 153.284 579.103 152.698 578.387 151.852L572.332 144.039H571.648C570.802 145.341 569.272 147.001 567.059 149.02C564.91 150.973 561.753 152.698 557.586 154.195C553.484 155.693 548.016 156.441 541.18 156.441ZM550.652 131.441C556.512 131.441 561.102 130.335 564.422 128.121C567.807 125.908 570.216 123.108 571.648 119.723V78.8047C570.607 78.1536 568.882 77.3724 566.473 76.4609C564.064 75.5495 560.678 75.0938 556.316 75.0938C548.243 75.0938 542.189 77.7305 538.152 83.0039C534.116 88.2773 532.098 95.3737 532.098 104.293C532.098 113.538 533.79 120.374 537.176 124.801C540.561 129.228 545.053 131.441 550.652 131.441ZM718.133 148.824C718.133 150.777 717.71 152.145 716.863 152.926C716.082 153.642 714.715 154 712.762 154H691.961C690.008 154 688.608 153.642 687.762 152.926C686.98 152.145 686.59 150.777 686.59 148.824V29.5859C686.59 27.6979 686.915 26.2656 687.566 25.2891C690.496 20.9922 694.598 16.4674 699.871 11.7148C700.848 10.9336 701.694 10.543 702.41 10.543C703.191 10.543 704.005 10.9336 704.852 11.7148C707.716 14.1888 710.125 16.5651 712.078 18.8438C714.031 21.0573 715.724 23.2057 717.156 25.2891C717.807 26.3307 718.133 27.763 718.133 29.5859V148.824ZM840.789 91.793V148.824C840.789 150.777 840.366 152.145 839.52 152.926C838.738 153.642 837.371 154 835.418 154H815.301C813.348 154 811.948 153.642 811.102 152.926C810.32 152.145 809.93 150.777 809.93 148.824V96.8711C809.93 89.7747 808.432 84.599 805.438 81.3438C802.443 78.0885 798.374 76.4609 793.23 76.4609C788.087 76.4609 784.116 77.5677 781.316 79.7812C778.582 81.9948 776.466 84.7943 774.969 88.1797V148.824C774.969 150.777 774.546 152.145 773.699 152.926C772.918 153.642 771.551 154 769.598 154H749.48C747.527 154 746.128 153.642 745.281 152.926C744.5 152.145 744.109 150.777 744.109 148.824V66.9883C744.109 65.4258 744.435 64.2214 745.086 63.375C746.453 61.5521 748.081 59.6966 749.969 57.8086C751.922 55.9206 754.298 53.9023 757.098 51.7539C757.944 51.1029 758.758 50.7773 759.539 50.7773C760.255 50.7773 761.069 51.1029 761.98 51.7539C764.715 53.9023 767.059 55.9531 769.012 57.9062C770.965 59.8594 772.69 61.8776 774.188 63.9609H774.676C775.783 62.5286 777.443 60.8685 779.656 58.9805C781.87 57.0273 784.962 55.3021 788.934 53.8047C792.97 52.3073 798.113 51.5586 804.363 51.5586C810.483 51.5586 816.31 52.7956 821.844 55.2695C827.378 57.7435 831.902 61.9102 835.418 67.7695C838.999 73.6289 840.789 81.6367 840.789 91.793Z" fill="white"/>
</svg>
